<?xml version="1.0" encoding="UTF-8" standalone="no"?>
<!-- Created with Inkscape (http://www.inkscape.org/) -->

<svg
   version="1.1"
   id="svg1"
   width="279.98154"
   height="233.06596"
   viewBox="0 0 279.98154 233.06596"
   xmlns="http://www.w3.org/2000/svg"
   xmlns:svg="http://www.w3.org/2000/svg">
  <defs
     id="defs1" />
  <g
     id="g1"
     transform="translate(-5.2896432,-4.5796925)">
    <path
       style="fill:#000000"
       d="m 118.23977,234.20849 c 0.34598,-2.14526 2.87487,-26.14339 5.61975,-53.32918 l 4.99068,-49.42872 -2.17292,-2.31297 -2.17293,-2.31298 -3.0835,2.34741 c -4.92103,3.74629 -11.25418,6.63597 -14.54365,6.63597 h -3.03984 v 10.37756 c 0,8.15493 0.33209,10.65316 1.55056,11.6644 0.8528,0.70777 1.4153,2.41214 1.25,3.7875 -0.25871,2.15243 -1.20572,2.75564 -6.800565,4.33169 -7.966607,2.24418 -11.359217,2.31588 -13.052287,0.27585 -0.86268,-1.03947 -1.44952,-6.05498 -1.752,-14.97373 -0.41643,-12.27847 -0.62217,-13.46385 -2.436779,-14.03978 -1.13582,-0.3605 -2.51336,-0.0515 -3.2267,0.72373 -0.68462,0.74403 -11.4276,13.35476 -23.87329,28.02386 -23.90586,28.1766 -27.86333,32.07185 -30.18238,29.70782 -2.23818,-2.28159 -20.5198912,-34.99979 -20.0139712,-35.81838 0.25798,-0.41741 14.8905112,-9.45305 32.5167512,-20.07919 l 32.0477,-19.32026 -0.58994,-3.14466 c -0.41319,-2.20246 -0.11761,-3.53667 0.98647,-4.45299 0.86704,-0.71957 1.57643,-2.36784 1.57643,-3.66281 0,-2.77579 -0.71629,-2.28102 22.999515,-15.886873 16.332846,-9.370199 18.463986,-10.884489 18.196046,-12.929189 -0.34967,-2.66829 4.75016,-7.58455 7.86775,-7.58455 1.20937,0 2.40812,-1.19201 3.26837,-3.25 1.72302,-4.12201 3.26081,-5.3258 7.86196,-6.15435 2.49473,-0.44923 3.9055,-1.33266 4.34636,-2.72168 0.81775,-2.57649 6.09263,-4.85801 9.65658,-4.17672 1.73892,0.33241 3.69141,-0.1797 5.49974,-1.4425 1.54203,-1.07684 4.24561,-2.23432 6.00796,-2.57218 2.58701,-0.49595 3.55386,-0.16986 5.01899,1.69276 l 1.81471,2.30703 20.24704,-10.95743 20.24704,-10.957424 4.91935,2.116248 c 7.28245,3.132824 9.9798,2.738307 20.03578,-2.930453 4.92388,-2.775686 9.21345,-5.468926 9.53239,-5.984978 0.31894,-0.516052 0.0813,-4.579836 -0.52811,-9.030631 -1.14698,-8.377035 -0.5325,-10.9376891 2.6247,-10.9376891 1.17992,0 5.91079,5.6064151 8.3111,9.8492491 0.9085,1.605867 4.07983,0.135675 18.27625,-8.4726601 5.24319,-3.1793313 9.38344,-5.1157143 9.59312,-4.4866783 0.2092,0.627623 1.38389,0.851898 2.71377,0.51812 1.88464,-0.473014 2.64834,-0.0017 3.8909,2.4011323 1.35995,2.6298361 1.36865,3.1368611 0.0723,4.2126941 -0.81046,0.672668 -1.47361,1.779245 -1.47361,2.459061 0,0.679815 -4.83223,4.084538 -10.73829,7.56605 -5.90606,3.481512 -12.69068,7.820314 -15.07693,9.641784 -2.38626,1.821469 -5.54153,3.593628 -7.01171,3.938132 -3.58116,0.839159 -22.96341,12.236233 -24.47488,14.391613 -1.56711,2.23473 -7.73932,5.973 -9.86982,5.97776 -2.61326,0.006 -24.07825,13.24327 -24.5789,15.15777 -0.24613,0.94119 -2.20312,2.87307 -4.34888,4.29306 l -3.90138,2.58181 3.0004,5.31641 c 1.65021,2.92402 3.00039,6.14364 3.00039,7.15469 0,2.08769 -3.73288,9.027613 -11.69558,21.743642 l -5.47521,8.74365 1.8354,3.70189 c 1.41019,2.84429 2.81998,4.02341 6.08539,5.08969 2.3375,0.76329 4.24017,1.9128 4.22816,2.55446 -0.012,0.64167 -1.0589,5.66667 -2.32643,11.16667 -2.1851,9.48155 -2.44626,10.0167 -5.03722,10.32212 -1.50295,0.17717 -2.93766,0.85642 -3.18825,1.50944 -0.25059,0.65303 1.79091,13.55208 4.53667,28.66456 3.91205,21.53164 4.72666,27.71523 3.76468,28.57714 -2.61041,2.33886 -31.73544,14.35197 -50.72761,20.92345 -5.225,1.8079 -10.33849,3.62845 -11.36332,4.04567 -1.68389,0.68552 -1.80275,0.38298 -1.23427,-3.14191 z m 51.37521,-79.56762 c -0.21398,-0.64194 -4.41398,-2.7832 -9.33334,-4.75837 -9.83724,-3.94975 -16.63767,-7.66294 -23.33808,-12.74314 -4.749,-3.60064 -6.1062,-4.05336 -6.1062,-2.03683 0,3.10823 17.8801,14.09148 29.77415,18.28944 7.55985,2.66822 9.5695,2.94699 9.00347,1.2489 z m 7.22238,-19.76189 c 0,-0.51097 -2.44474,-1.63975 -5.43275,-2.50839 -10.7461,-3.12397 -29.37909,-15.12834 -33.78744,-21.76768 -1.03427,-1.55768 -1.95238,-1.93893 -3.3521,-1.39194 -1.69083,0.66074 -1.14075,1.49574 4.47649,6.7951 7.86979,7.42445 18.03684,14.10128 26.3359,17.29512 6.47055,2.49014 11.7599,3.1998 11.7599,1.57779 z m -63.11803,-6.26817 c 4.89898,-2.97513 5.2604,-3.75019 3.3036,-7.08445 -2.55349,-4.35099 -3.62015,-4.93309 -6.57365,-3.58738 -3.13772,1.42964 -3.18953,1.86501 -0.61192,5.14191 1.1,1.39842 2,2.80911 2,3.13486 0,1.2924 -3.63985,0.43841 -6,-1.40773 -3.42499,-2.67907 -4.33886,-2.48624 -3.52801,0.74441 1.46261,5.82751 5.20042,6.82941 11.40998,3.05838 z m 41.00381,-34.565013 c 1.98782,-1.461289 3.80172,-2.787579 4.03089,-2.947329 0.22916,-0.15975 0.15848,-0.54863 -0.15707,-0.86419 -0.97833,-0.97832 -6.39003,2.34582 -9.14048,5.614549 -1.66588,1.979784 -2.60098,4.267573 -2.56928,6.285923 l 0.0499,3.17327 2.08593,-4.30267 c 1.14727,-2.366469 3.71234,-5.498273 5.70016,-6.959553 z m -24.79007,4.046614 c 1.59736,-0.94358 2.90429,-2.068584 2.90429,-2.500004 0,-0.43141 1.73429,-0.78439 3.85398,-0.78439 2.72489,0 4.64426,-0.73241 6.55152,-2.499999 1.74906,-1.62097 3.86265,-2.5 6.01116,-2.5 1.82249,0 4.45779,-0.9 5.85621,-2 2.97695,-2.34167 7.42078,-2.54628 10.16826,-0.46819 1.06762,0.8075 3.09262,1.45018 4.5,1.42815 l 2.55887,-0.04 -2.75,-1.4919 c -3.07378,-1.66755 -3.49019,-2.93 -1.25,-3.78965 3.405,-1.30662 1.20348,-2.29306 -2.98072,-1.33557 -6.23496,1.42676 -11.98034,-0.35992 -14.05432,-4.37056 -0.85068,-1.64504 -1.31638,-3.36362 -1.0349,-3.81908 0.28149,-0.45546 5.25265,-2.51718 11.04702,-4.58161 10.0591,-3.58387 10.6484,-3.67935 13.03945,-2.11268 1.37732,0.90246 3.51205,3.19683 4.74384,5.0986 1.2318,1.90178 2.80213,3.46334 3.48963,3.47015 1.68158,0.0166 1.57354,-1.05877 -0.40336,-4.01511 -3.58408,-5.35979 -6.72549,-7.97251 -9.58575,-7.97251 -2.28393,0 -3.07693,-0.60814 -3.91032,-2.99881 -1.21272,-3.4788 -3.03222,-3.02589 -2.62664,0.65382 0.23905,2.16889 -0.39439,2.76285 -4.72393,4.42952 -2.75,1.05862 -5.47724,1.74451 -6.06053,1.52421 -0.58328,-0.2203 -1.61385,-2.24739 -2.29014,-4.50464 -1.15717,-3.86229 -2.08245,-4.83765 -3.36888,-3.55121 -0.30409,0.30408 0.0876,2.66658 0.87047,5.25 1.34741,4.44649 1.31466,4.77032 -0.61378,6.06908 -3.19635,2.15268 -2.72918,7.58984 0.96995,11.28897 3.42249,3.42249 3.13814,4.83906 -0.97135,4.83906 -2.66616,0 -3.14859,-0.69592 -7.62539,-11 -4.35334,-10.01988 -6.41035,-13.13881 -6.41035,-9.71964 0,0.7042 1.575,5.01483 3.5,9.57918 1.925,4.56435 3.5,9.35605 3.5,10.64821 0,3.21946 -2.71126,5.66347 -5.87572,5.29654 -2.15861,-0.25029 -3.36177,-1.71832 -6.78034,-8.27297 -3.76379,-7.21657 -6.34394,-10.34667 -6.34394,-7.69614 0,0.55102 1.575,4.28832 3.5,8.30512 4.00718,8.36157 4.27381,10.375199 1.56574,11.824519 -3.98597,2.133224 -5.88318,1.194274 -10.08295,-4.990169 -2.25046,-3.31394 -4.52457,-5.75784 -5.05358,-5.4309 -1.05795,0.65385 -0.87571,1.05529 3.23743,7.13128 5.35753,7.914232 7.47329,8.832172 12.92907,5.609363 z m 72.00969,-37.980373 c 6.17029,-3.68279 10.77104,-6.84521 10.22389,-7.02759 -1.18425,-0.39475 -22.32399,11.88887 -22.32712,12.97357 -0.004,1.23345 0.43803,1.0165 12.10323,-5.94598 z m -4.50628,-7.83673 c 8.6725,-5.10404 11.28651,-7.49329 8.15088,-7.45005 -1.89418,0.0261 -19.04438,10.36591 -19.50989,11.76244 -0.75312,2.25935 1.91161,1.2477 11.35901,-4.31239 z m 36.97844,-11.55923 c 10.03625,-5.866203 12.38992,-7.553122 8.67244,-6.215694 -3.74549,1.347506 -20.25,10.708884 -20.25,11.485814 0,1.3904 0.82436,1.01516 11.57756,-5.27012 z M 256.8153,23.267635 c -1.33989,-2.452788 -2.81115,-4.459614 -3.26947,-4.459614 -0.45831,0 0.39254,2.252255 1.89077,5.005011 1.49824,2.752755 2.9695,4.759582 3.26947,4.459614 0.29997,-0.299968 -0.55088,-2.552223 -1.89077,-5.005011 z m -10.56054,-4.593261 c -1.19963,-1.941044 -3.4174,-0.780285 -3.4174,1.788635 0,2.581086 0.055,2.605201 1.97642,0.866353 1.08703,-0.983749 1.73547,-2.178494 1.44098,-2.654988 z"
       id="path1" />
  </g>
</svg>
