<?xml version="1.0" standalone="no"?><!-- Generator: Gravit.io --><svg xmlns="http://www.w3.org/2000/svg" xmlns:xlink="http://www.w3.org/1999/xlink" style="isolation:isolate" viewBox="0 0 450 450" width="450" height="450"><defs><clipPath id="_clipPath_OU9WXq60lMfANkCewcd8FA0CuY2UTPkg"><rect width="450" height="450"/></clipPath></defs><g clip-path="url(#_clipPath_OU9WXq60lMfANkCewcd8FA0CuY2UTPkg)"><path d=" M 152.4 104 C 130.217 104 112.067 122.15 112.067 144.333 L 112.067 176.6 C 112.067 189.87 122.997 200.8 136.267 200.8 L 136.267 208.867 L 74.508 208.867 C 65.782 208.871 57.292 211.701 50.308 216.933 L 26.608 234.583 L 23.333 237.1 L 23.333 264.075 L 23.583 264.075 C 23.93 268.326 25.197 272.706 27.617 276.675 L 53.833 319.025 C 64.123 335.754 82.343 345.961 101.983 346 L 348.017 346 C 367.657 345.961 385.877 335.754 396.167 319.025 L 422.383 276.675 C 424.707 272.854 426.09 268.535 426.417 264.075 L 426.667 264.075 L 426.667 237.1 L 423.392 234.575 L 399.692 216.933 C 392.708 211.701 384.218 208.871 375.492 208.867 L 273.4 208.867 L 273.4 200.8 L 274.658 200.8 C 291.114 200.8 302.803 184.005 297.35 168.533 L 426.667 168.533 L 426.667 128.2 L 282.475 128.2 C 276.13 113.514 261.665 104.004 245.667 104 L 152.4 104 Z  M 152.4 120.133 L 245.675 120.133 C 255.879 120.133 264.857 126.401 268.358 136.017 L 282.225 173.825 C 284.209 179.31 280.523 184.667 274.658 184.667 L 136.267 184.667 C 131.701 184.667 128.2 181.166 128.2 176.6 L 128.2 144.333 C 128.2 130.878 138.945 120.133 152.4 120.133 Z  M 288.525 144.333 L 410.533 144.333 L 410.533 152.4 L 291.55 152.4 L 288.525 144.333 Z  M 152.4 200.8 L 257.267 200.8 L 257.267 208.867 L 152.4 208.867 L 152.4 200.8 Z  M 74.508 225 L 375.492 225 C 380.727 225 385.922 226.638 390.117 229.792 L 410.533 245.167 L 410.533 247.942 L 39.467 247.942 L 39.467 245.167 L 59.883 229.792 C 64.114 226.659 69.244 224.978 74.508 225 Z  M 39.967 264.075 L 410.033 264.075 C 409.711 265.527 409.396 266.939 408.517 268.358 L 382.55 310.708 C 375.135 322.646 362.069 329.894 348.017 329.867 L 101.983 329.867 C 87.931 329.894 74.865 322.646 67.45 310.708 L 41.483 268.358 C 40.596 266.939 40.289 265.519 39.967 264.075 Z  M 104 329.867 C 121.747 329.867 136.267 315.347 136.267 297.6 C 136.267 279.853 121.747 265.333 104 265.333 C 86.253 265.333 71.733 279.853 71.733 297.6 C 71.733 315.347 86.253 329.867 104 329.867 Z  M 184.667 329.867 C 202.413 329.867 216.933 315.347 216.933 297.6 C 216.933 279.853 202.413 265.333 184.667 265.333 C 166.92 265.333 152.4 279.853 152.4 297.6 C 152.4 315.347 166.92 329.867 184.667 329.867 Z  M 265.333 329.867 C 283.08 329.867 297.6 315.347 297.6 297.6 C 297.6 279.853 283.08 265.333 265.333 265.333 C 247.587 265.333 233.067 279.853 233.067 297.6 C 233.067 315.347 247.587 329.867 265.333 329.867 Z  M 346 329.867 C 363.747 329.867 378.267 315.347 378.267 297.6 C 378.267 279.853 363.747 265.333 346 265.333 C 328.253 265.333 313.733 279.853 313.733 297.6 C 313.733 315.347 328.253 329.867 346 329.867 Z  M 104 281.467 C 113.01 281.467 120.133 288.59 120.133 297.6 C 120.133 306.61 113.01 313.733 104 313.733 C 94.99 313.733 87.867 306.61 87.867 297.6 C 87.867 288.59 94.99 281.467 104 281.467 Z  M 184.667 281.467 C 193.677 281.467 200.8 288.59 200.8 297.6 C 200.8 306.61 193.677 313.733 184.667 313.733 C 175.656 313.733 168.533 306.61 168.533 297.6 C 168.533 288.59 175.656 281.467 184.667 281.467 Z  M 265.333 281.467 C 274.344 281.467 281.467 288.59 281.467 297.6 C 281.467 306.61 274.344 313.733 265.333 313.733 C 256.323 313.733 249.2 306.61 249.2 297.6 C 249.2 288.59 256.323 281.467 265.333 281.467 Z  M 346 281.467 C 355.01 281.467 362.133 288.59 362.133 297.6 C 362.133 306.61 355.01 313.733 346 313.733 C 336.99 313.733 329.867 306.61 329.867 297.6 C 329.867 288.59 336.99 281.467 346 281.467 Z " fill="rgb(0,0,0)"/></g></svg>