<?xml version="1.0" encoding="UTF-8"?>
<svg width="1200pt" height="1200pt" version="1.1" viewBox="0 0 1200 1200" xmlns="http://www.w3.org/2000/svg">
 <path d="m1150 650c-13.262 0-25.98 5.2695-35.355 14.645-9.3789 9.3789-14.645 22.098-14.645 35.355v75l-300-225v-113.01c-0.085938-15.512-5.9531-30.434-16.453-41.848-10.5-11.418-24.879-18.512-40.328-19.891-15.453-1.3789-30.859 3.0508-43.219 12.426v-121.93c0-9.4961-1.8008-18.902-5.3125-27.723l-67.289-219.43c-2.9219-7.3555-8.6836-13.23-15.984-16.293-7.3008-3.0664-15.527-3.0664-22.828 0-7.3008 3.0625-13.062 8.9375-15.984 16.293l-67.289 219.43c-3.5117 8.8203-5.3125 18.227-5.3125 27.723v121.93c-12.359-9.375-27.766-13.805-43.219-12.426-15.449 1.3828-29.828 8.4727-40.328 19.891s-16.367 26.34-16.453 41.848v113.01l-300 225v-75 0.003906c0-17.863-9.5273-34.371-25-43.305-15.469-8.9297-34.527-8.9297-50 0-15.469 8.9336-25 25.441-25 43.305v350-0.003906c0 17.863 9.5312 34.371 25 43.301 15.473 8.9336 34.531 8.9336 50 0 15.473-8.9297 25-25.438 25-43.301v-50l400-100v125l-111.23 95.273 0.003907 0.003906c-8.7617 8.7578-13.68 20.637-13.68 33.023 0 12.383 4.918 24.262 13.676 33.023 8.7617 8.7578 20.641 13.676 33.023 13.676l177.92-25 178.49 25c12.383 0 24.262-4.918 33.023-13.676 8.7578-8.7617 13.676-20.641 13.676-33.023 0-12.387-4.918-24.266-13.68-33.023l-111.23-95.277v-125l400 100v50c0 17.863 9.5273 34.371 25 43.301 15.469 8.9336 34.527 8.9336 50 0 15.469-8.9297 25-25.438 25-43.301v-350c0-13.258-5.2695-25.977-14.648-35.355-9.375-9.375-22.094-14.645-35.352-14.645z"/>
</svg>
