<?xml version="1.0" encoding="UTF-8" standalone="no"?>
<svg
   viewBox="0 0 3753.5974 1954.3271"
   x="0px"
   y="0px"
   version="1.1"
   id="svg4"
   width="3753.5974"
   height="1954.3271"
   xmlns="http://www.w3.org/2000/svg"
   xmlns:svg="http://www.w3.org/2000/svg">
  <defs
     id="defs1">
    <style
       id="style1">
      .cls-1 {
        stroke-width: 0px;
      }
    </style>
  </defs>
  <path
     class="cls-1"
     d="m -175.14189,-1624.0952 c 0.48999,0.5701 1.68994,2.2001 1.62994,4.16 0,0.2 0.07,0.4 0.21002,0.5401 0.15002,0.1499 0.34003,0.2299 0.53998,0.2299 0.22209,-0.017 49.69,0.024 49.87984,-0.01 0.21019,-0.05 4.95018,-1.04 6.39018,-4.92 z"
     id="path1" />
  <path
     class="cls-1"
     d="m -172.45195,-1629.4451 5,3 -0.25,0.8499 c 0,0 9.12905,-3e-4 10.11005,0 0,0 -0.95002,-3.33 -0.95002,-3.33 -0.09,-0.32 -0.39001,-0.55 -0.72003,-0.55 h -6.75995 c -0.7628,-0.036 -0.82511,1.0398 -1.01001,1.55 0,0 -4.65003,-2.8 -4.65003,-2.8 -0.83771,-0.5126 -1.61718,0.7788 -0.77002,1.2801 z"
     id="path2" />
  <path
     class="cls-1"
     d="m -122.0219,-1625.5952 -3.83002,-3.6699 c -0.14001,-0.13 -0.33002,-0.2101 -0.52002,-0.2101 h -3.89996 v -2.3768 c -0.0178,-0.6855 -0.97579,-0.4111 -1.45374,-0.4632 0,0 -0.25628,-0.88 -0.25628,-0.88 l 6.15002,-2.3 c 0.91486,-0.331 0.39853,-1.7494 -0.52007,-1.4 5e-5,0 -6.03993,2.25 -6.03993,2.25 -0.16518,-0.5124 -0.22848,-1.4123 -0.96005,-1.39 2e-5,0 -6.75998,0 -6.75998,0 -0.34003,0 -0.63,0.22 -0.71997,0.54 l -0.90723,3.18 h -2.1828 v -4.8624 h 1.48926 c 0.41406,0 0.75,-0.3359 0.75,-0.75 0,-0.414 -0.33594,-0.75 -0.75,-0.75 h -1.48926 v -1.5224 h 3.14844 c 0.98007,0 0.98055,-1.4973 -5e-5,-1.5 5e-5,0 -3.14839,0 -3.14839,0 v -1.1402 c 0,-0.42 -0.33002,-0.75 -0.75,-0.75 -0.40997,0 -0.75,0.33 -0.75,0.75 v 1.1402 h -3.13916 c -0.41406,0 -0.75,0.3359 -0.75,0.75 0,0.4141 0.33594,0.75 0.75,0.75 h 3.13916 v 1.5225 h -1.48047 c -0.97709,0.01 -0.98383,1.4946 5e-5,1.5 -5e-5,0 1.48042,0 1.48042,0 v 4.8623 c -0.63048,-0.01 -2.12689,0.01 -2.74685,0 -0.25584,0 -0.46317,0.2074 -0.46317,0.4632 v 2.3768 h -2.51996 c -0.19,0 -0.38,0.08 -0.52002,0.2101 l -3.83002,3.6699 h 33.48004 z"
     id="path3" />
</svg>
