<?xml version="1.0" encoding="UTF-8" standalone="no"?>
<svg
   version="1.1"
   viewBox="-5 -10 80.680786 84.041745"
   id="svg2"
   width="80.680786"
   height="84.041748"
   xmlns="http://www.w3.org/2000/svg"
   xmlns:svg="http://www.w3.org/2000/svg">
  <defs
     id="defs2">
    <clipPath
       clipPathUnits="userSpaceOnUse"
       id="clipPath2">
      <rect
         style="fill:none;fill-rule:evenodd"
         id="rect3"
         width="108.39977"
         height="116.39522"
         x="-4.3849659"
         y="-8.6161728" />
    </clipPath>
  </defs>
  <path
     d="m 29.445,65.246 h -12.5 c -2.3828,0 -4.0273,-0.36328 -5.0977,-0.91406 -0.97656,-0.50781 -1.5742,-1.1914 -1.8984,-1.9648 -0.3125,-0.75 -0.37109,-1.6094 -0.16016,-2.5625 0.23828,-1.0742 0.85156,-2.3125 1.7461,-3.6133 0.29297,-0.4375 0.44922,-0.95312 0.44922,-1.4805 v -0.01172 c 0.01563,-2.1172 0.01563,-6.5781 0.01563,-11.953 0,-9.5273 3.9375,-18.633 10.879,-25.16 6.9414,-6.5234 16.266,-9.8945 25.777,-9.3125 l 2.6953,0.16797 c 13.848,0.84766 25.844,9.9023 30.453,22.988 l 0.625,1.7695 c 0.94141,2.668 2.7734,4.9258 5.1836,6.3867 2.9297,1.6992 3.3711,4.9375 1.9531,7.25 -0.91016,1.4883 -2.6133,2.625 -5.0039,2.625 h -28.43 c -0.875,0 -1.6914,0.44531 -2.1719,1.1836 l -6.4961,10.047 c -1.3633,2.1094 -3.4531,3.5977 -5.8281,4.2227 v 12.641 c 0.78125,0.04297 1.4023,0.69141 1.4023,1.4805 v 11.727 c 0,0.82031 -0.66406,1.4883 -1.4844,1.4883 h -12.027 c -0.82031,0 -1.4844,-0.66797 -1.4844,-1.4883 v -11.727 c 0,-0.78906 0.62109,-1.4375 1.4023,-1.4805 z m 9.6523,-2.9688 c 2.3711,0 4.5859,-1.207 5.875,-3.1992 l 6.4961,-10.047 c 1.0234,-1.582 2.7812,-2.5391 4.6641,-2.5391 h 28.43 c 1.1641,0 2.0273,-0.48438 2.4727,-1.2109 0.61328,-1.0039 0.35938,-2.3906 -0.91797,-3.1289 -0.0078,-0.0039 -0.01563,-0.01172 -0.02344,-0.01563 -3.0117,-1.8242 -5.2969,-4.6328 -6.4648,-7.9492 l -0.625,-1.7695 c -4.2148,-11.961 -15.18,-20.234 -27.836,-21.016 l -2.6953,-0.16406 c -8.6914,-0.53516 -17.215,2.5469 -23.559,8.5117 -6.3438,5.9688 -9.9414,14.289 -9.9414,22.996 0,5.3828 0,9.8555 -0.01563,11.965 0,1.1172 -0.33594,2.2148 -0.96094,3.1445 -0.0039,0.0039 -0.0078,0.0039 -0.0078,0.0078 -0.55078,0.80078 -0.98047,1.5586 -1.207,2.2539 -0.13672,0.41797 -0.22266,0.78906 -0.08984,1.1055 0.12109,0.28906 0.42969,0.45703 0.86328,0.61719 0.79297,0.29688 1.9023,0.4375 3.3906,0.4375 z m -0.42969,15.273 v -12.305 h -6.2539 v 12.305 z m -7.6523,2.9727 v 8.7539 h 9.0508 v -8.7539 z m 4.1094,-35.469 c 3.5938,0 6.5117,2.9219 6.5117,6.5156 0,3.5937 -2.918,6.5117 -6.5117,6.5117 -3.5937,0 -6.5117,-2.918 -6.5117,-6.5117 0,-3.5937 2.918,-6.5156 6.5117,-6.5156 z m 0,2.9727 c -1.957,0 -3.543,1.5859 -3.543,3.543 0,1.9531 1.5859,3.543 3.543,3.543 1.9531,0 3.543,-1.5898 3.543,-3.543 0,-1.957 -1.5898,-3.543 -3.543,-3.543 z"
     fill-rule="evenodd"
     id="path1"
     clip-path="url(#clipPath2)"
     transform="translate(-14.664018,-18.209014)" />
  <path
     style="fill:none;fill-opacity:0;stroke-width:0.153759"
     d="m 0.78578192,43.904886 c -2.15850002,-0.2353 -2.88070002,-0.6568 -2.70760002,-1.58 0.053,-0.2831 0.4534,-1.1335 0.8895,-1.8897 1.43080002,-2.4812 1.35660002,-1.9753 1.35910002,-9.2566 0,-3.5298 0.07,-7.4104 0.1529,-8.6237 C 1.5526819,6.8410865 13.690482,-5.4659135 29.473782,-6.8432135 c 3.5227,-0.3074 9.3037,0.1491 12.6731,1.0007 4.2449,1.0729 8.7054,3.2686 11.9932,5.9035 1.3034,1.0447 3.8024,3.5154 4.8392,4.7845 2.1971,2.6894 4.1971,6.3226995 5.4613,9.9209995 1.5278,4.349 3.3425,6.8461 6.5006,8.9456 1.2142,0.8072 1.5071,1.1882 1.6057,2.0888 0.086,0.7853 -0.3547,1.5382 -1.1864,2.0268 -0.5302,0.3115 -0.7501,0.3169 -15.9135,0.3927 l -15.3758,0.077 -1.0094,0.4783 c -0.7092,0.336 -1.2229,0.7248 -1.7272,1.3069 -0.3948,0.4558 -2.2115,3.1466 -4.0372,5.9796 -1.8256,2.833 -3.643,5.4835 -4.0387,5.8901 -0.8892,0.9135 -2.5277,1.7376 -3.8715,1.9472 -1.1332,0.1767 -22.9862001,0.1816 -24.60140008,0.01 z m 21.69130008,-4.298 c 3.0637,-0.9535 5.0147,-4.114 4.4766,-7.2518 -0.3748,-2.1858 -1.6828,-3.9504 -3.644,-4.9159 -1.0285,-0.5063 -1.1337,-0.5257 -2.8395,-0.5257 -1.675,0 -1.8282,0.027 -2.813,0.4933 -3.881,1.8383 -4.9648,6.7598 -2.2484,10.2097 1.4986,1.9032 4.5697,2.768 7.0683,1.9904 z"
     id="path3" />
  <path
     style="fill:#008000;fill-opacity:0;stroke-width:0.153759"
     d="m 0.78578192,43.904886 c -2.15850002,-0.2353 -2.88070002,-0.6568 -2.70760002,-1.58 0.053,-0.2831 0.4534,-1.1335 0.8895,-1.8897 1.43080002,-2.4812 1.35660002,-1.9753 1.35910002,-9.2566 0,-3.5298 0.07,-7.4104 0.1529,-8.6237 C 1.5526819,6.8410865 13.690482,-5.4659135 29.473782,-6.8432135 c 3.5227,-0.3074 9.3037,0.1491 12.6731,1.0007 4.2449,1.0729 8.7054,3.2686 11.9932,5.9035 1.3034,1.0447 3.8024,3.5154 4.8392,4.7845 2.1971,2.6894 4.1971,6.3226995 5.4613,9.9209995 1.5278,4.349 3.3425,6.8461 6.5006,8.9456 1.2142,0.8072 1.5071,1.1882 1.6057,2.0888 0.086,0.7853 -0.3547,1.5382 -1.1864,2.0268 -0.5302,0.3115 -0.7501,0.3169 -15.9135,0.3927 l -15.3758,0.077 -1.0094,0.4783 c -0.7092,0.336 -1.2229,0.7248 -1.7272,1.3069 -0.3948,0.4558 -2.2115,3.1466 -4.0372,5.9796 -1.8256,2.833 -3.643,5.4835 -4.0387,5.8901 -0.8892,0.9135 -2.5277,1.7376 -3.8715,1.9472 -1.1332,0.1767 -22.9862001,0.1816 -24.60140008,0.01 z m 21.69130008,-4.298 c 3.0637,-0.9535 5.0147,-4.114 4.4766,-7.2518 -0.3748,-2.1858 -1.6828,-3.9504 -3.644,-4.9159 -1.0285,-0.5063 -1.1337,-0.5257 -2.8395,-0.5257 -1.675,0 -1.8282,0.027 -2.813,0.4933 -3.881,1.8383 -4.9648,6.7598 -2.2484,10.2097 1.4986,1.9032 4.5697,2.768 7.0683,1.9904 z"
     id="path4" />
  <path
     style="fill:#008000;fill-opacity:0;stroke-width:0.153759"
     d="m 0.78578192,43.904886 c -2.15850002,-0.2353 -2.88070002,-0.6568 -2.70760002,-1.58 0.053,-0.2831 0.4534,-1.1335 0.8895,-1.8897 1.43080002,-2.4812 1.35660002,-1.9753 1.35910002,-9.2566 0,-3.5298 0.07,-7.4104 0.1529,-8.6237 C 1.5526819,6.8410865 13.690482,-5.4659135 29.473782,-6.8432135 c 3.5227,-0.3074 9.3037,0.1491 12.6731,1.0007 4.2449,1.0729 8.7054,3.2686 11.9932,5.9035 1.3034,1.0447 3.8024,3.5154 4.8392,4.7845 2.1971,2.6894 4.1971,6.3226995 5.4613,9.9209995 1.5278,4.349 3.3425,6.8461 6.5006,8.9456 1.2142,0.8072 1.5071,1.1882 1.6057,2.0888 0.086,0.7853 -0.3547,1.5382 -1.1864,2.0268 -0.5302,0.3115 -0.7501,0.3169 -15.9135,0.3927 l -15.3758,0.077 -1.0094,0.4783 c -0.7092,0.336 -1.2229,0.7248 -1.7272,1.3069 -0.3948,0.4558 -2.2115,3.1466 -4.0372,5.9796 -1.8256,2.833 -3.643,5.4835 -4.0387,5.8901 -0.8892,0.9135 -2.5277,1.7376 -3.8715,1.9472 -1.1332,0.1767 -22.9862001,0.1816 -24.60140008,0.01 z m 21.69130008,-4.298 c 3.0637,-0.9535 5.0147,-4.114 4.4766,-7.2518 -0.3748,-2.1858 -1.6828,-3.9504 -3.644,-4.9159 -1.0285,-0.5063 -1.1337,-0.5257 -2.8395,-0.5257 -1.675,0 -1.8282,0.027 -2.813,0.4933 -3.881,1.8383 -4.9648,6.7598 -2.2484,10.2097 1.4986,1.9032 4.5697,2.768 7.0683,1.9904 z"
     id="path5" />
  <path
     style="fill:#008000;fill-opacity:0;stroke-width:0.153759"
     d="m 19.508082,36.686686 c -3.0057,-0.969 -3.3596,-4.976 -0.5626,-6.3698 1.0908,-0.5436 2.0021,-0.5383 3.0587,0.018 1.1931,0.6277 1.744,1.4729 1.8184,2.7899 0.046,0.8219 -0.01,1.1699 -0.2491,1.646 -0.3629,0.7112 -1.0024,1.383 -1.6215,1.7032 -0.5431,0.2808 -1.8738,0.3968 -2.4439,0.213 z"
     id="path6" />
  <path
     style="fill:#008000;fill-opacity:0;stroke-width:0.153759"
     d="m 17.852982,53.206186 v -6.0735 h 3.0752 3.0752 v 6.0735 6.0734 h -3.0752 -3.0752 z"
     id="path7" />
</svg>
