<?xml version="1.0" encoding="UTF-8" standalone="no"?>
<svg
   version="1.1"
   viewBox="-5 -10 9625 11812.5"
   id="svg2"
   width="9625"
   height="11812.5"
   xmlns="http://www.w3.org/2000/svg"
   xmlns:svg="http://www.w3.org/2000/svg">
  <defs
     id="defs2" />
  <path
     d="m -1187.5,-2187.5 c -24.062,0 -43.75,19.688 -43.75,43.75 0,24.062 19.688,43.75 43.75,43.75 24.062,0 43.75,-19.688 43.75,-43.75 0,-24.062 -19.688,-43.75 -43.75,-43.75 z m 7.8125,43.75 c 0,4.375 -3.4375,7.8125 -7.8125,7.8125 -4.375,0 -7.8125,-3.4375 -7.8125,-7.8125 0,-4.375 3.4375,-7.8125 7.8125,-7.8125 4.375,0 7.8125,3.4375 7.8125,7.8125 z m -44.375,1.5625 c -0.9375,0 -1.5625,-0.625 -1.5625,-1.5625 0,-13.438 7.1875,-26.25 19.062,-32.812 0.625,-0.3125 1.5625,-0.3125 2.1875,0.625 l 11.25,19.688 c 0.3125,0.3125 0.3125,0.9375 0.3125,1.25 0,0.3125 -0.3125,0.625 -0.625,0.9375 -3.75,2.1875 -6.25,6.25 -6.25,10.625 0,0.9375 -0.625,1.5625 -1.5625,1.5625 h -22.812 z m 55.625,31.25 c -5.625,3.4375 -12.188,5 -19.062,5 -6.874,0 -13.125,-1.875 -19.062,-5 -0.625,-0.3125 -0.9375,-1.25 -0.625,-2.1875 l 11.25,-19.688 c 0.3125,-0.3125 0.625,-0.625 0.9375,-0.625 0.3125,0 0.9375,0 1.25,0.3125 3.75,2.1875 8.4375,2.1875 12.188,0 0.3125,-0.3125 0.9375,-0.3125 1.25,-0.3125 0.3125,0 0.625,0.3125 0.9375,0.625 l 11.25,19.688 c 0.625,0.9375 0.3125,1.875 -0.3125,2.1875 z m 17.5,-31.25 h -22.5 c -0.9375,0 -1.5625,-0.625 -1.5625,-1.5625 0,-4.375 -2.5,-8.4375 -6.25,-10.625 -0.3125,-0.3125 -0.625,-0.625 -0.625,-0.9375 0,-0.3125 0,-0.9375 0.3125,-1.25 l 11.25,-19.688 c 0.3125,-0.625 1.25,-0.9375 2.1875,-0.625 11.875,6.875 19.062,19.375 19.062,32.812 -0.3125,1.25 -1.25,1.875 -1.875,1.875 z"
     id="path1" />
</svg>
