<?xml version="1.0" encoding="UTF-8" standalone="no"?>
<svg
   viewBox="0 0 58.649963 24.428953"
   x="0px"
   y="0px"
   version="1.1"
   id="svg4"
   width="58.649963"
   height="24.428953"
   xmlns="http://www.w3.org/2000/svg"
   xmlns:svg="http://www.w3.org/2000/svg">
  <defs
     id="defs1">
    <style
       id="style1">
      .cls-1 {
        stroke-width: 0px;
      }
    </style>
  </defs>
  <path
     class="cls-1"
     d="M 2.6109909e-6,19.495022 C 0.48999261,20.065122 1.6899426,21.695122 1.6299426,23.655022 c 0,0.2 0.07,0.4 0.21002,0.5401 0.15002,0.1499 0.34003,0.2299 0.53998,0.2299 0.22209,-0.017 49.6900004,0.024 49.8798404,-0.01 0.21019,-0.05 4.95018,-1.04 6.39018,-4.92 z"
     id="path1" />
  <path
     class="cls-1"
     d="m 2.6899426,14.145122 5,3 -0.25,0.8499 c 0,0 9.1290504,-3e-4 10.1100504,0 0,0 -0.95002,-3.33 -0.95002,-3.33 -0.09,-0.32 -0.39001,-0.55 -0.72003,-0.55 H 9.1199926 c -0.7628,-0.036 -0.82511,1.0398 -1.01001,1.55 0,0 -4.65003,-2.8 -4.65003,-2.8 -0.83771,-0.5126 -1.61718,0.7788 -0.77002,1.2801 z"
     id="path2" />
  <path
     class="cls-1"
     d="m 53.119993,17.995022 -3.83002,-3.6699 c -0.14001,-0.13 -0.33002,-0.2101 -0.52002,-0.2101 h -3.89996 v -2.3768 c -0.0178,-0.6855 -0.97579,-0.4111 -1.45374,-0.4632 0,0 -0.25628,-0.88 -0.25628,-0.88 l 6.15002,-2.3000005 c 0.91486,-0.331 0.39853,-1.7494 -0.52007,-1.4 5e-5,0 -6.03993,2.25 -6.03993,2.25 -0.16518,-0.5124 -0.22848,-1.4123 -0.96005,-1.39 2e-5,0 -6.75998,0 -6.75998,0 -0.34003,0 -0.63,0.22 -0.71997,0.54 l -0.90723,3.1800005 h -2.1828 V 6.4126215 h 1.48926 c 0.41406,0 0.75,-0.3359 0.75,-0.75 0,-0.414 -0.33594,-0.75 -0.75,-0.75 h -1.48926 v -1.5224 h 3.14844 c 0.98007,0 0.98055,-1.4973 -5e-5,-1.5 5e-5,0 -3.14839,0 -3.14839,0 V 0.75002145 c 0,-0.42 -0.33002,-0.749999999157 -0.75,-0.749999999157 -0.40997,0 -0.75,0.329999999157 -0.75,0.749999999157 V 1.8902215 h -3.13916 c -0.41406,0 -0.75,0.3359 -0.75,0.75 0,0.4141 0.33594,0.75 0.75,0.75 h 3.13916 v 1.5225 h -1.48047 c -0.97709,0.01 -0.98383,1.4946 5e-5,1.5 -5e-5,0 1.48042,0 1.48042,0 v 4.8623005 c -0.63048,-0.01 -2.12689,0.01 -2.74685,0 -0.25584,0 -0.46317,0.2074 -0.46317,0.4632 v 2.3768 h -2.51996 c -0.19,0 -0.38,0.08 -0.52002,0.2101 l -3.83002,3.6699 h 33.48004 z"
     id="path3" />
</svg>
