<?xml version="1.0" encoding="UTF-8" standalone="no"?>
<svg
   height="600"
   width="900"
   version="1.1"
   id="svg90"
   sodipodi:docname="Flag_of_the_People's_Republic_of_the_Congo.svg"
   inkscape:version="1.3 (0e150ed6c4, 2023-07-21)"
   xmlns:inkscape="http://www.inkscape.org/namespaces/inkscape"
   xmlns:sodipodi="http://sodipodi.sourceforge.net/DTD/sodipodi-0.dtd"
   xmlns="http://www.w3.org/2000/svg"
   xmlns:svg="http://www.w3.org/2000/svg">
  <defs
     id="defs90" />
  <sodipodi:namedview
     id="namedview90"
     pagecolor="#ffffff"
     bordercolor="#000000"
     borderopacity="0.25"
     inkscape:showpageshadow="2"
     inkscape:pageopacity="0.0"
     inkscape:pagecheckerboard="0"
     inkscape:deskcolor="#d1d1d1"
     inkscape:zoom="1.24"
     inkscape:cx="450"
     inkscape:cy="172.17742"
     inkscape:window-width="1920"
     inkscape:window-height="1007"
     inkscape:window-x="-9"
     inkscape:window-y="-9"
     inkscape:window-maximized="1"
     inkscape:current-layer="svg90" />
  <path
     d="m0 0h900v600h-900z"
     fill="#dc241f"
     fill-rule="evenodd"
     id="path1" />
  <g
     transform="matrix(0.50889821,0,0,0.50889821,50.809555,-202.53219)"
     id="g90">
    <g
       id="g89"
       transform="translate(0,-125.1914)">
      <g
         stroke="#000000"
         id="g88">
        <path
           d="m 299.41688,884.37133 c 1.07773,-27.77879 3.29418,-47.15178 7.99706,-59.34906 21.90631,-56.81557 59.02166,26.5573 55.74891,62.59195 -20.01454,-6.44954 -51.09958,-6.05262 -63.74597,-3.24289 z"
           fill="#ffd700"
           stroke-linejoin="round"
           stroke-width="2.04876"
           id="path83" />
        <path
           d="M 178.41619,985.09667 324.98939,841.00925 C 340.51448,825.433 328.2878,816.44541 314.61214,830.26139 L 167.66833,976.20188 c -10.15929,10.08993 -1.11812,20.55955 10.74786,8.89479 z"
           fill="#ffd700"
           stroke-linejoin="round"
           stroke-width="2.04876"
           id="path84" />
        <path
           d="m 262.81855,901.69764 c -7.98787,4.53092 -12.64213,1.50191 -18.43815,-1.76044 l -1.57512,2.40901 9.72867,9.914 z"
           stroke-width="0.51219"
           id="path85" />
        <path
           d="m 227.14675,917.72676 c 6.98733,-3.66364 15.00075,4.0989 9.54336,9.54337 l 6.11517,-5.92982 -9.82133,-9.54338 z"
           stroke-width="0.51219"
           id="path86" />
        <path
           d="M 305.79652,984.89026 160.37162,837.55761 c -6.46587,-6.5507 0.45525,-20.91002 10.5419,-10.58641 l 145.76687,149.19124 c 7.66625,7.84639 0.0994,19.85524 -10.88387,8.72782 z"
           fill="#ffd700"
           stroke-linejoin="round"
           stroke-width="2.04876"
           id="path87" />
        <path
           d="m 194.47354,806.72436 c 1.08732,-1.08013 1.1923,-0.92003 2.19351,-0.20597 10.05715,7.17275 21.19082,9.46644 27.16042,4.39981 1.92593,-1.63461 3.26876,-1.34286 4.87988,0.3347 l 11.76209,12.24711 -37.08222,36.29602 3.79995,3.79995 c -9.72183,-0.0171 -10.42059,5.38221 -8.25506,13.23428 l -6.68265,-6.42059 -27.64788,27.38581 c -0.78481,0.77737 -1.20574,1.18987 -2.48962,-0.13104 l -27.25477,-28.04096 c -1.80988,-1.8621 -1.33302,-2.52627 0.17504,-3.98743 20.02848,-19.40543 39.6524,-39.25355 59.44131,-58.91169 z"
           stroke-width="0.51219"
           id="path88" />
      </g>
      <path
         d="m 138.133,869.36141 c -1.49779,-1.5401 -0.88252,-1.61326 0,-2.48962 l 55.72023,-55.33057 c 0.51346,-0.71887 0.88334,-0.24798 1.44443,0.0875 10.82652,6.38829 19.49038,5.56773 27.63835,3.0275 1.03229,-0.37985 1.2951,-0.57694 2.0809,0.18391 l 7.59058,7.3496 c 2.08542,2.01922 0.85173,2.9558 -0.13104,3.93097 l -67.74383,67.21971 c -1.40278,1.39192 -2.17048,1.14026 -3.40685,-0.13104 z"
         fill="#ffd700"
         stroke="#ffd700"
         stroke-width="1.79266"
         id="path89" />
    </g>
  </g>
  <path
     d="m 202.79536,126.31464 -24.80167,-16.88021 -24.33015,17.72892 8.2515,-28.950975 -24.70736,-18.20047 30.60129,-0.565814 9.336,-29.139603 10.23186,28.809537 30.4127,0.04718 -24.16779,18.876144 z"
     fill="#ffd700"
     stroke="#000000"
     id="path90" />
  <g
     id="g39210"
     transform="matrix(0.24699818,0.09069534,-0.09879776,0.26906416,142.75997,-66.828886)"
     style="display:inline;fill:#008000;fill-opacity:1;stroke:#002b00;stroke-width:3.64133;stroke-miterlimit:4;stroke-dasharray:none;stroke-opacity:1">
    <g
       transform="matrix(-1.0103041,0.3620829,0.3437689,1.0594303,725.175,-183.32242)"
       id="g39212"
       style="fill:#008000;fill-opacity:1;stroke:#002b00;stroke-width:3.33127;stroke-miterlimit:4;stroke-dasharray:none;stroke-opacity:1">
      <path
         sodipodi:nodetypes="csszccsssc"
         id="path39214"
         d="m 801.23577,330.35442 c 32.50933,24.96203 84.63214,72.44052 109.67653,114.36645 46.1991,77.34029 56.81136,178.25267 8.77848,270.29728 -39.13514,74.99362 -134.28867,128.41249 -152.78673,142.92012 -18.97852,14.88454 -90.57584,57.00228 -96.2718,69.40793 -2.56002,-5.87523 -5.06428,-10.84986 -0.88012,-19.24341 15.2838,-14.89387 68.48523,-39.55452 106.68263,-63.53581 C 853.19084,796.3774 928.91173,732.57868 942.62207,624.0651 960.49984,482.56605 888.79558,403.3819 800.56906,331.15198 Z"
         style="display:inline;fill:#008000;fill-opacity:1;fill-rule:evenodd;stroke:#002b00;stroke-width:3.33127;stroke-linecap:butt;stroke-linejoin:miter;stroke-miterlimit:4;stroke-dasharray:none;stroke-opacity:1" />
    </g>
    <path
       sodipodi:nodetypes="cc"
       id="path39288"
       d="m 366.13139,1041.5693 c -10.90747,-10.1694 -8.026,-17.123 -5.54745,-20.8029"
       style="fill:#008000;fill-opacity:1;fill-rule:evenodd;stroke:#002b00;stroke-width:3.64133;stroke-linecap:butt;stroke-linejoin:miter;stroke-miterlimit:4;stroke-dasharray:none;stroke-opacity:1" />
  </g>
</svg>