<svg height="600" width="1000" xmlns="http://www.w3.org/2000/svg" xmlns:xlink="http://www.w3.org/1999/xlink"><path d="m0 0h1000v600h-1000z"/><path d="m0 200h1000v400h-1000z" fill="#d00"/><path d="m0 400h1000v200h-1000z" fill="#ffce00"/><g transform="matrix(.204591 0 0 .204548 333.5001 254.7414)"><path d="m1351.01 228.29a520 570.51 0 1 1 -1040 0 520 570.51 0 1 1  1040 0z" fill="#d00" transform="matrix(1.09099 0 0 1.00519 -93.10889 -17.03263)"/><g transform="translate(-896.5747 -1479.218)"><use height="1052.36" transform="matrix(-1 0 0 1 3344.188 -55.39965)" width="744.09" xlink:href="#a"/><use height="1052.36" transform="matrix(-1 0 0 1 3362.762 -41.47837)" width="744.09" xlink:href="#a"/><use height="1052.36" transform="matrix(-1 0 0 1 3381.317 -27.62595)" width="744.09" xlink:href="#a"/><use height="1052.36" transform="matrix(-1 0 0 1 3399.832 -13.72483)" width="744.09" xlink:href="#a"/><use height="1052.36" transform="matrix(-1 0 0 1 3418.376 .166189)" width="744.09" xlink:href="#a"/><use height="1052.36" transform="translate(74.6188 -55.50708)" width="744.09" xlink:href="#a"/><use height="1052.36" transform="translate(55.83946 -41.54721)" width="744.09" xlink:href="#a"/><use height="1052.36" transform="translate(37.06012 -27.58735)" width="744.09" xlink:href="#a"/><use height="1052.36" transform="translate(18.4746 -13.76497)" width="744.09" xlink:href="#a"/><path id="a" d="m1605.68 2445.31l175.51 82.98 18.55-13.92-164.76-77.69z" fill="#ffc709" stroke="#000" stroke-width="6.25"/></g></g></svg>