<svg version="1.1" id="Layer_1" xmlns="http://www.w3.org/2000/svg" xmlns:xlink="http://www.w3.org/1999/xlink" x="0px" y="0px"
	 width="100%" viewBox="0 0 400 144" enable-background="new 0 0 400 144" xml:space="preserve">
<path fill="#000000" opacity="1.000000" stroke="none" 
	d="
M19.259548,109.586082 
	C20.893135,113.033623 24.014847,113.547516 26.817505,114.472504 
	C30.291643,115.619110 33.836468,116.549927 37.337215,117.618332 
	C38.704536,118.035629 39.927151,118.889656 39.595291,120.444832 
	C39.266136,121.987328 37.844444,122.359398 36.404453,122.071770 
	C30.012550,120.794998 23.648411,119.228287 18.159372,115.613724 
	C14.319116,113.084900 13.382506,109.005119 14.186299,104.543106 
	C16.924530,89.342651 24.823889,76.768570 35.758087,66.513420 
	C51.415707,51.828182 68.992462,39.605274 90.129356,34.112083 
	C102.977081,30.773127 115.892876,31.083138 127.510269,39.036083 
	C142.732025,49.456467 151.903351,64.712158 160.172440,80.555542 
	C163.574890,87.074577 163.088821,87.153893 169.991608,85.084763 
	C189.905945,79.115379 208.902939,70.521301 228.942535,64.856300 
	C241.655380,61.262497 254.626572,59.312767 267.584259,57.284939 
	C282.817902,54.900932 297.140839,49.574047 311.591125,44.668892 
	C332.996704,37.402756 354.258423,29.713259 375.605804,22.274120 
	C377.415009,21.643654 379.370758,20.819365 382.725525,22.592226 
	C368.020691,30.829153 352.663513,35.013279 338.002686,40.889294 
	C323.019379,46.894566 307.469421,51.138409 291.588043,57.221104 
	C295.495392,58.524349 298.828949,59.661301 302.178619,60.748627 
	C311.557800,63.793179 314.777130,73.424332 309.022095,81.686447 
	C305.972626,86.064392 302.495392,90.151711 298.266937,93.443039 
	C284.077606,104.487602 270.104401,115.894730 254.382370,124.732391 
	C241.587921,131.924408 228.569366,138.340500 212.984665,137.298996 
	C200.688431,136.477219 190.994308,130.953354 181.587204,123.811264 
	C174.227219,118.223412 171.644272,109.594749 166.811615,102.412788 
	C165.288284,100.148903 164.198257,98.369095 160.992645,99.361870 
	C151.937622,102.166229 142.797562,104.696053 133.744019,107.504959 
	C131.398376,108.232704 129.044312,109.106400 127.045761,110.755013 
	C125.280952,112.210785 123.116264,112.523270 120.902626,111.774727 
	C119.601425,111.334717 118.408493,110.629570 118.134598,109.163002 
	C117.812492,107.438316 119.240379,106.867271 120.418343,106.322739 
	C124.498146,104.436806 128.632614,102.669250 132.715134,100.789047 
	C139.975037,97.445457 147.204391,94.035522 154.463318,90.689774 
	C156.840225,89.594215 158.503036,88.336494 156.944366,85.362320 
	C149.351639,70.874229 141.349045,56.714073 128.616699,45.889565 
	C119.614052,38.235897 108.955887,35.142475 97.835609,37.614819 
	C71.739143,43.416798 49.681973,56.284084 33.145180,77.865860 
	C27.347595,85.432144 21.811537,93.021286 19.213715,102.375290 
	C18.565208,104.710358 18.360867,106.935997 19.259548,109.586082 
M195.289047,127.278816 
	C200.215836,129.188431 204.864136,131.462769 210.449799,131.808624 
	C224.088882,132.653122 236.228638,129.117493 248.039017,122.409859 
	C268.129089,110.999802 286.653290,97.612671 303.259857,81.582802 
	C305.677338,79.249275 307.063080,76.033203 307.453522,72.716629 
	C307.809235,69.695236 304.096313,69.985901 302.820557,68.117104 
	C302.274658,67.317436 301.437408,66.632294 300.591461,66.135147 
	C293.875641,62.188221 286.648163,59.073608 278.857605,60.895737 
	C269.978210,62.972519 261.230591,65.856712 252.688461,69.085190 
	C227.636017,78.553688 201.920853,86.034599 176.654312,94.850166 
	C174.383881,95.642326 171.652496,95.336998 169.898361,97.663635 
	C175.296158,109.881172 183.285645,119.816925 195.289047,127.278816 
M196.630112,83.026558 
	C215.096924,77.031219 233.087021,69.625114 251.950134,64.802582 
	C239.071976,65.854988 181.185623,84.925285 172.304504,91.105629 
	C180.161209,88.489113 188.017929,85.872604 196.630112,83.026558 
z"/>
</svg>