<?xml version="1.0" encoding="utf-8"?>
<svg version="1.1" id="Layer_1" xmlns="http://www.w3.org/2000/svg" xmlns:xlink="http://www.w3.org/1999/xlink" x="0px" y="0px"
	 viewBox="0 0 900 600" style="enable-background:new 0 0 900 600;" xml:space="preserve">
<style type="text/css">
	.st0{fill-rule:evenodd;clip-rule:evenodd;fill:#6ABD51;}
	.st1{fill-rule:evenodd;clip-rule:evenodd;fill:#FCDD09;}
	.st2{fill:#DA121A;}
	.st3{fill:#7D4B23;stroke:#FCDD09;stroke-width:0.2449;stroke-miterlimit:4.7926;}
	.st4{fill:#FCDD09;}
	.st5{fill:#7D4B23;stroke:#FCDD09;stroke-width:0.3674;stroke-linejoin:round;stroke-miterlimit:4.7926;}
	.st6{fill:none;stroke:#FCDD09;stroke-width:0.9801;stroke-linecap:round;stroke-linejoin:round;stroke-miterlimit:4.7926;}
	.st7{fill:none;stroke:#FCDD09;stroke-width:0.9798;stroke-linecap:round;stroke-linejoin:round;stroke-miterlimit:4.7926;}
</style>
<g transform="translate(164.04167 385.3988)">
	<path class="st0" d="M-164-385.4h900v600h-900L-164-385.4z"/>
	<ellipse class="st1" cx="208" cy="-137.4" rx="130.2" ry="130.2"/>
	<path class="st2" d="M138.1-155.8c-4.5,0.6-5.7-7.4-5.4-13.5c0.1-1.4,3.6-9.3,3.6-1.9c0,1.8,1.4,3.1,2,4.8
		c1.8,4.6,4.7,7.4,3.4,1.9c-1-4.3-9-18.8,12.7-31.6c9.4-5.5,19.2-7.5,27.9-17.1c1-1.1,3.5-5,3.8,0.2c0.1,1.4-1.2,2.6-2.5,4.3
		c-1.2,1.7-3.1,4.5,1.9,2.5c4-1.6,6.9-4.2,10.1-7.9c4.7-5.3,10.1-7.1,20.2-14.2c3.2-2.2,7.8-2,2.6,2.2c-1.6,1.3-1.8,5.6-3.5,8
		c-1.3,1.8-6.3,5.5,0.4,3.4c6.6-2.1,10.4-1.9,22.5-13.5c2.5-2.5,4-6.4,14.2-4.9c5.8,0.9,10.9,1.1,16.2-2.5c1.5-1,5.5-3.9,1.5,2
		c-8.9,13.4-20.9,7.1-28.5,15.6c-4.1,4.5-0.9,3.1,2.1,0.6c2.9-2.4,6.1-4.2,11.7-2.1c2,0.7,3.8,0.2,5.8-1.3c3.7-2.8,2.8-0.1,1.8,2
		c-1.5,3.3-4.8,4.1-8.1,5.3c-2.7,1-1.6,1.7,0.7,2c5.5,0.8,14.5,2.6,16.1,1.5c2.1-1.4,3.4-1.3,0.8,2c-3.5,4.5-9.7,4.9-16.5,5.2
		c-3.9,0.2-9.2,3.3-14.1,7.5c-3.8,3.2-3.5,3-0.9,2.5c1.3-0.3,5.5-0.7,1.5,2.6c-1.5,1.2-4.3,5.7-6.5,7.8c-1.5,1.5-3.7,2.6-6.3,3.5
		c-2.1,0.7-7,0.7-1.1,2.2c6.4,1.6,11.7,0.8,17.8-1c5.5-1.6,10.8,0.9,17,4.7c3.6,2.2,7.2,4.9,13.2,3.1c3.3-1,5.8-1,1.5,2.7
		c-5.1,4.3-12.1,5.8-20.9,4.2c-3.8-0.7-7.5-1.4-11.3-2.1c-3.5-0.6-7,0.5-0.2,1.5c8.2,1.2,13.7,7.9,23.3,10.3c1.1,0.3,2.2,0,3.2-0.1
		c1.9-0.2,5.8,0.3,1.4,2.5c-4,2-6.4,2.1-13.5,1c-2.2-0.3-4.5-0.7-6.7-1c-2.6-0.4-4-0.5-0.4,1.2c5.2,2.4,8,6.5,16.5,7.2
		c4.1,0.4,3.4,1.2,0.6,2.5c-4.3,2-9.3,2-14.3,1.5c-3.3-0.3-4.7-1.7-10.2-0.8c-4.7,0.7-5,2.7-14.2-1.7c-4.5-2.2-5.6-3.3-7.8-4.4
		c-2.3-1.1-5.2-2.7-2.1,1.7c2.6,3.7,3.1,7.7,12.1,11.9c3.6,1.7,4.6,1.9-0.1,2.3c-12.2,1.1-12.4-1.7-17.1-3.9
		c-3.5-1.6-6.6-2.4-10.9-1.5c-2.4,0.5-10.4,2.5-14.5,5.7c-4.2,3.3-15.9-0.2-15.9-0.2C183.4-146.2,151.9-155.4,138.1-155.8z"/>
</g>
</svg>